<svg width="231" height="59" viewBox="0 0 231 59" fill="none" xmlns="http://www.w3.org/2000/svg">
<path d="M0 0H172C204.585 0 231 26.4152 231 59V59H59C26.4152 59 0 32.5848 0 0V0Z" fill="#D0F7A2"/>
<path d="M79.4205 36.5H74.2642V21.9545H79.4631C80.9261 21.9545 82.1856 22.2457 83.2415 22.8281C84.2973 23.4058 85.1094 24.2367 85.6776 25.321C86.2505 26.4053 86.5369 27.7027 86.5369 29.2131C86.5369 30.7282 86.2505 32.0303 85.6776 33.1193C85.1094 34.2083 84.2926 35.044 83.2273 35.6264C82.1667 36.2088 80.8977 36.5 79.4205 36.5ZM77.3395 33.8651H79.2926C80.2017 33.8651 80.9664 33.7041 81.5866 33.3821C82.2116 33.0554 82.6804 32.5511 82.9929 31.8693C83.3101 31.1828 83.4688 30.2973 83.4688 29.2131C83.4688 28.1383 83.3101 27.2599 82.9929 26.5781C82.6804 25.8963 82.214 25.3944 81.5938 25.0724C80.9735 24.7505 80.2088 24.5895 79.2997 24.5895H77.3395V33.8651ZM93.6871 36.7131C92.5839 36.7131 91.6299 36.4787 90.8249 36.0099C90.0247 35.5365 89.4068 34.8783 88.9712 34.0355C88.5356 33.188 88.3178 32.2055 88.3178 31.0881C88.3178 29.9612 88.5356 28.9763 88.9712 28.1335C89.4068 27.286 90.0247 26.6278 90.8249 26.1591C91.6299 25.6856 92.5839 25.4489 93.6871 25.4489C94.7904 25.4489 95.7421 25.6856 96.5423 26.1591C97.3472 26.6278 97.9674 27.286 98.4031 28.1335C98.8387 28.9763 99.0565 29.9612 99.0565 31.0881C99.0565 32.2055 98.8387 33.188 98.4031 34.0355C97.9674 34.8783 97.3472 35.5365 96.5423 36.0099C95.7421 36.4787 94.7904 36.7131 93.6871 36.7131ZM93.7013 34.3693C94.2032 34.3693 94.6223 34.2273 94.9585 33.9432C95.2946 33.6544 95.5479 33.2614 95.7184 32.7642C95.8936 32.267 95.9812 31.7012 95.9812 31.0668C95.9812 30.4323 95.8936 29.8665 95.7184 29.3693C95.5479 28.8722 95.2946 28.4792 94.9585 28.1903C94.6223 27.9015 94.2032 27.7571 93.7013 27.7571C93.1947 27.7571 92.7686 27.9015 92.4229 28.1903C92.082 28.4792 91.824 28.8722 91.6488 29.3693C91.4783 29.8665 91.3931 30.4323 91.3931 31.0668C91.3931 31.7012 91.4783 32.267 91.6488 32.7642C91.824 33.2614 92.082 33.6544 92.4229 33.9432C92.7686 34.2273 93.1947 34.3693 93.7013 34.3693ZM105.953 36.7131C104.835 36.7131 103.874 36.4763 103.069 36.0028C102.269 35.5246 101.654 34.8617 101.223 34.0142C100.797 33.1667 100.583 32.1913 100.583 31.0881C100.583 29.9706 100.799 28.9905 101.23 28.1477C101.665 27.3002 102.283 26.6397 103.083 26.1662C103.884 25.688 104.835 25.4489 105.939 25.4489C106.89 25.4489 107.724 25.6217 108.439 25.9673C109.154 26.313 109.719 26.7983 110.136 27.4233C110.553 28.0483 110.782 28.7822 110.825 29.625H107.97C107.889 29.0805 107.676 28.6425 107.331 28.3111C106.99 27.9749 106.542 27.8068 105.988 27.8068C105.52 27.8068 105.11 27.9347 104.76 28.1903C104.414 28.4413 104.144 28.8082 103.95 29.2912C103.756 29.7741 103.659 30.3589 103.659 31.0455C103.659 31.7415 103.753 32.3333 103.943 32.821C104.137 33.3087 104.409 33.6804 104.76 33.9361C105.11 34.1918 105.52 34.3196 105.988 34.3196C106.334 34.3196 106.644 34.2486 106.919 34.1065C107.198 33.9645 107.428 33.7585 107.608 33.4886C107.792 33.214 107.913 32.8849 107.97 32.5014H110.825C110.778 33.3348 110.55 34.0687 110.143 34.7031C109.741 35.3329 109.184 35.8253 108.474 36.1804C107.764 36.5355 106.923 36.7131 105.953 36.7131ZM117.448 36.5V21.9545H120.523V33.9645H126.759V36.5H117.448ZM128.739 36.5V25.5909H131.764V36.5H128.739ZM130.259 24.1847C129.809 24.1847 129.423 24.0355 129.101 23.7372C128.784 23.4342 128.625 23.072 128.625 22.6506C128.625 22.2339 128.784 21.8764 129.101 21.5781C129.423 21.2751 129.809 21.1236 130.259 21.1236C130.708 21.1236 131.092 21.2751 131.409 21.5781C131.731 21.8764 131.892 22.2339 131.892 22.6506C131.892 23.072 131.731 23.4342 131.409 23.7372C131.092 24.0355 130.708 24.1847 130.259 24.1847ZM137.213 30.1932V36.5H134.188V25.5909H137.071V27.5156H137.199C137.441 26.8812 137.846 26.3793 138.414 26.0099C138.982 25.6359 139.671 25.4489 140.48 25.4489C141.238 25.4489 141.899 25.6146 142.462 25.946C143.025 26.2775 143.463 26.7509 143.776 27.3665C144.088 27.9773 144.245 28.7064 144.245 29.554V36.5H141.219V30.0938C141.224 29.4261 141.053 28.9053 140.708 28.5312C140.362 28.1525 139.886 27.9631 139.28 27.9631C138.873 27.9631 138.513 28.0507 138.201 28.2259C137.893 28.401 137.651 28.6567 137.476 28.9929C137.306 29.3243 137.218 29.7244 137.213 30.1932ZM149.371 33.3608L149.378 29.7315H149.818L153.312 25.5909H156.786L152.091 31.0739H151.374L149.371 33.3608ZM146.629 36.5V21.9545H149.655V36.5H146.629ZM153.447 36.5L150.237 31.7486L152.254 29.6108L156.991 36.5H153.447Z" fill="#040328"/>
</svg>
