<svg width="231" height="59" viewBox="0 0 231 59" fill="none" xmlns="http://www.w3.org/2000/svg">
<path d="M0 0H172C204.585 0 231 26.4152 231 59V59H59C26.4152 59 0 32.5848 0 0V0Z" fill="#D0F7A2"/>
<path d="M56.8395 21.9545V36.5H53.7642V21.9545H56.8395ZM62.3384 30.1932V36.5H59.3129V25.5909H62.1964V27.5156H62.3242C62.5657 26.8812 62.9705 26.3793 63.5387 26.0099C64.1069 25.6359 64.7958 25.4489 65.6055 25.4489C66.363 25.4489 67.0236 25.6146 67.587 25.946C68.1505 26.2775 68.5884 26.7509 68.9009 27.3665C69.2134 27.9773 69.3697 28.7064 69.3697 29.554V36.5H66.3441V30.0938C66.3488 29.4261 66.1784 28.9053 65.8327 28.5312C65.4871 28.1525 65.0112 27.9631 64.4052 27.9631C63.998 27.9631 63.6381 28.0507 63.3256 28.2259C63.0179 28.401 62.7764 28.6567 62.6012 28.9929C62.4308 29.3243 62.3432 29.7244 62.3384 30.1932ZM77.5568 25.5909V27.8636H70.9872V25.5909H77.5568ZM72.4787 22.9773H75.5043V33.1477C75.5043 33.4271 75.5469 33.6449 75.6321 33.8011C75.7173 33.9527 75.8357 34.0592 75.9872 34.1207C76.1435 34.1823 76.3234 34.2131 76.527 34.2131C76.669 34.2131 76.8111 34.2012 76.9531 34.1776C77.0952 34.1491 77.2041 34.1278 77.2798 34.1136L77.7557 36.3651C77.6042 36.4124 77.3911 36.4669 77.1165 36.5284C76.8419 36.5947 76.508 36.6349 76.1151 36.6491C75.3859 36.6776 74.7467 36.5805 74.1974 36.358C73.6529 36.1354 73.2292 35.7898 72.9261 35.321C72.6231 34.8523 72.474 34.2604 72.4787 33.5455V22.9773ZM84.3821 36.7131C83.2599 36.7131 82.294 36.4858 81.4844 36.0312C80.6795 35.572 80.0592 34.9233 79.6236 34.0852C79.188 33.2424 78.9702 32.2457 78.9702 31.0952C78.9702 29.973 79.188 28.9882 79.6236 28.1406C80.0592 27.2931 80.6723 26.6326 81.4631 26.1591C82.2585 25.6856 83.1913 25.4489 84.2614 25.4489C84.9811 25.4489 85.651 25.5649 86.2713 25.7969C86.8963 26.0241 87.4408 26.3674 87.9048 26.8267C88.3736 27.286 88.7382 27.8636 88.9986 28.5597C89.259 29.2509 89.3892 30.0606 89.3892 30.9886V31.8196H80.1776V29.9446H86.5412C86.5412 29.509 86.4465 29.1231 86.2571 28.7869C86.0677 28.4508 85.8049 28.188 85.4688 27.9986C85.1373 27.8045 84.7514 27.7074 84.3111 27.7074C83.8518 27.7074 83.4446 27.8139 83.0895 28.027C82.7391 28.2353 82.4645 28.517 82.2656 28.8722C82.0668 29.2225 81.965 29.6132 81.9602 30.044V31.8267C81.9602 32.3665 82.0597 32.8329 82.2585 33.2259C82.4621 33.6188 82.7486 33.9219 83.1179 34.1349C83.4872 34.348 83.9252 34.4545 84.4318 34.4545C84.768 34.4545 85.0758 34.4072 85.3551 34.3125C85.6345 34.2178 85.8736 34.0758 86.0724 33.8864C86.2713 33.697 86.4228 33.465 86.527 33.1903L89.3253 33.375C89.1832 34.0473 88.892 34.6345 88.4517 35.1364C88.0161 35.6335 87.4527 36.0218 86.7614 36.3011C86.0748 36.5758 85.2817 36.7131 84.3821 36.7131ZM91.3636 36.5V25.5909H94.2969V27.4943H94.4105C94.6094 26.8172 94.9432 26.3059 95.4119 25.9602C95.8807 25.6098 96.4205 25.4347 97.0312 25.4347C97.1828 25.4347 97.3461 25.4441 97.5213 25.4631C97.6965 25.482 97.8504 25.508 97.983 25.5412V28.2259C97.8409 28.1832 97.6444 28.1454 97.3935 28.1122C97.1425 28.0791 96.9129 28.0625 96.7045 28.0625C96.2595 28.0625 95.8617 28.1596 95.5114 28.3537C95.1657 28.5431 94.8911 28.8082 94.6875 29.1491C94.4886 29.4901 94.3892 29.883 94.3892 30.3281V36.5H91.3636ZM99.5472 36.5V25.5909H102.431V27.5156H102.559C102.786 26.8764 103.165 26.3722 103.695 26.0028C104.225 25.6335 104.86 25.4489 105.598 25.4489C106.346 25.4489 106.983 25.6359 107.509 26.0099C108.034 26.3793 108.385 26.8812 108.56 27.5156H108.674C108.896 26.8906 109.299 26.3911 109.881 26.017C110.468 25.6383 111.162 25.4489 111.962 25.4489C112.98 25.4489 113.806 25.7732 114.441 26.4219C115.08 27.0658 115.4 27.9796 115.4 29.1634V36.5H112.381V29.7599C112.381 29.1539 112.22 28.6993 111.898 28.3963C111.576 28.0933 111.174 27.9418 110.691 27.9418C110.141 27.9418 109.713 28.117 109.405 28.4673C109.097 28.813 108.944 29.2699 108.944 29.8381V36.5H106.01V29.696C106.01 29.161 105.856 28.7348 105.549 28.4176C105.246 28.1004 104.846 27.9418 104.348 27.9418C104.012 27.9418 103.709 28.027 103.439 28.1974C103.174 28.3632 102.963 28.5975 102.807 28.9006C102.651 29.1989 102.573 29.5492 102.573 29.9517V36.5H99.5472ZM122.761 36.7131C121.639 36.7131 120.673 36.4858 119.863 36.0312C119.058 35.572 118.438 34.9233 118.002 34.0852C117.567 33.2424 117.349 32.2457 117.349 31.0952C117.349 29.973 117.567 28.9882 118.002 28.1406C118.438 27.2931 119.051 26.6326 119.842 26.1591C120.637 25.6856 121.57 25.4489 122.64 25.4489C123.36 25.4489 124.03 25.5649 124.65 25.7969C125.275 26.0241 125.82 26.3674 126.284 26.8267C126.752 27.286 127.117 27.8636 127.377 28.5597C127.638 29.2509 127.768 30.0606 127.768 30.9886V31.8196H118.556V29.9446H124.92C124.92 29.509 124.825 29.1231 124.636 28.7869C124.447 28.4508 124.184 28.188 123.848 27.9986C123.516 27.8045 123.13 27.7074 122.69 27.7074C122.231 27.7074 121.824 27.8139 121.468 28.027C121.118 28.2353 120.843 28.517 120.645 28.8722C120.446 29.2225 120.344 29.6132 120.339 30.044V31.8267C120.339 32.3665 120.439 32.8329 120.637 33.2259C120.841 33.6188 121.127 33.9219 121.497 34.1349C121.866 34.348 122.304 34.4545 122.811 34.4545C123.147 34.4545 123.455 34.4072 123.734 34.3125C124.013 34.2178 124.252 34.0758 124.451 33.8864C124.65 33.697 124.802 33.465 124.906 33.1903L127.704 33.375C127.562 34.0473 127.271 34.6345 126.831 35.1364C126.395 35.6335 125.832 36.0218 125.14 36.3011C124.454 36.5758 123.661 36.7131 122.761 36.7131ZM133.762 36.6776C132.934 36.6776 132.183 36.4645 131.511 36.0384C130.843 35.6075 130.313 34.9754 129.92 34.142C129.532 33.304 129.338 32.2765 129.338 31.0597C129.338 29.8097 129.539 28.7704 129.941 27.9418C130.344 27.1084 130.879 26.4858 131.547 26.0739C132.219 25.6572 132.955 25.4489 133.755 25.4489C134.366 25.4489 134.875 25.553 135.282 25.7614C135.694 25.965 136.026 26.2206 136.277 26.5284C136.532 26.8314 136.726 27.1297 136.859 27.4233H136.951V21.9545H139.97V36.5H136.987V34.7528H136.859C136.717 35.0559 136.516 35.3565 136.255 35.6548C136 35.9484 135.666 36.1922 135.254 36.3864C134.847 36.5805 134.35 36.6776 133.762 36.6776ZM134.721 34.2699C135.209 34.2699 135.621 34.1373 135.957 33.8722C136.298 33.6023 136.558 33.2259 136.738 32.7429C136.923 32.2599 137.015 31.6941 137.015 31.0455C137.015 30.3968 136.925 29.8333 136.745 29.3551C136.565 28.8769 136.305 28.5076 135.964 28.2472C135.623 27.9867 135.209 27.8565 134.721 27.8565C134.224 27.8565 133.805 27.9915 133.464 28.2614C133.123 28.5312 132.865 28.9053 132.69 29.3835C132.515 29.8617 132.427 30.4157 132.427 31.0455C132.427 31.6799 132.515 32.241 132.69 32.7287C132.87 33.2116 133.128 33.5904 133.464 33.8651C133.805 34.1349 134.224 34.2699 134.721 34.2699ZM142.457 36.5V25.5909H145.483V36.5H142.457ZM143.977 24.1847C143.527 24.1847 143.142 24.0355 142.82 23.7372C142.502 23.4342 142.344 23.072 142.344 22.6506C142.344 22.2339 142.502 21.8764 142.82 21.5781C143.142 21.2751 143.527 21.1236 143.977 21.1236C144.427 21.1236 144.811 21.2751 145.128 21.5781C145.45 21.8764 145.611 22.2339 145.611 22.6506C145.611 23.072 145.45 23.4342 145.128 23.7372C144.811 24.0355 144.427 24.1847 143.977 24.1847ZM151.017 36.706C150.321 36.706 149.701 36.5852 149.157 36.3438C148.612 36.0975 148.181 35.7353 147.864 35.2571C147.551 34.7741 147.395 34.1728 147.395 33.4531C147.395 32.8471 147.507 32.3381 147.729 31.9261C147.952 31.5142 148.255 31.1828 148.638 30.9318C149.022 30.6809 149.457 30.4915 149.945 30.3636C150.437 30.2358 150.953 30.1458 151.493 30.0938C152.128 30.0275 152.639 29.9659 153.027 29.9091C153.416 29.8475 153.697 29.7576 153.873 29.6392C154.048 29.5208 154.135 29.3456 154.135 29.1136V29.071C154.135 28.6212 153.993 28.2732 153.709 28.027C153.43 27.7808 153.032 27.6577 152.516 27.6577C151.971 27.6577 151.538 27.7784 151.216 28.0199C150.894 28.2566 150.681 28.5549 150.577 28.9148L147.779 28.6875C147.921 28.0246 148.2 27.4517 148.617 26.9688C149.033 26.4811 149.571 26.107 150.229 25.8466C150.892 25.5814 151.659 25.4489 152.53 25.4489C153.136 25.4489 153.716 25.5199 154.27 25.6619C154.829 25.804 155.324 26.0241 155.755 26.3224C156.19 26.6207 156.533 27.0043 156.784 27.473C157.035 27.937 157.161 28.4934 157.161 29.142V36.5H154.292V34.9872H154.206C154.031 35.3281 153.797 35.6288 153.503 35.8892C153.21 36.1449 152.857 36.3461 152.445 36.4929C152.033 36.6349 151.557 36.706 151.017 36.706ZM151.884 34.6179C152.329 34.6179 152.722 34.5303 153.063 34.3551C153.404 34.1752 153.671 33.9337 153.865 33.6307C154.06 33.3277 154.157 32.9844 154.157 32.6009V31.4432C154.062 31.5047 153.932 31.5616 153.766 31.6136C153.605 31.661 153.423 31.706 153.219 31.7486C153.016 31.7865 152.812 31.822 152.608 31.8551C152.405 31.8835 152.22 31.9096 152.054 31.9332C151.699 31.9853 151.389 32.0682 151.124 32.1818C150.859 32.2955 150.653 32.4493 150.506 32.6435C150.359 32.8329 150.286 33.0696 150.286 33.3537C150.286 33.7656 150.435 34.0805 150.733 34.2983C151.036 34.5114 151.42 34.6179 151.884 34.6179ZM165.311 25.5909V27.8636H158.741V25.5909H165.311ZM160.233 22.9773H163.258V33.1477C163.258 33.4271 163.301 33.6449 163.386 33.8011C163.471 33.9527 163.59 34.0592 163.741 34.1207C163.897 34.1823 164.077 34.2131 164.281 34.2131C164.423 34.2131 164.565 34.2012 164.707 34.1776C164.849 34.1491 164.958 34.1278 165.034 34.1136L165.51 36.3651C165.358 36.4124 165.145 36.4669 164.87 36.5284C164.596 36.5947 164.262 36.6349 163.869 36.6491C163.14 36.6776 162.501 36.5805 161.951 36.358C161.407 36.1354 160.983 35.7898 160.68 35.321C160.377 34.8523 160.228 34.2604 160.233 33.5455V22.9773ZM172.136 36.7131C171.014 36.7131 170.048 36.4858 169.238 36.0312C168.433 35.572 167.813 34.9233 167.377 34.0852C166.942 33.2424 166.724 32.2457 166.724 31.0952C166.724 29.973 166.942 28.9882 167.377 28.1406C167.813 27.2931 168.426 26.6326 169.217 26.1591C170.012 25.6856 170.945 25.4489 172.015 25.4489C172.735 25.4489 173.405 25.5649 174.025 25.7969C174.65 26.0241 175.195 26.3674 175.659 26.8267C176.127 27.286 176.492 27.8636 176.752 28.5597C177.013 29.2509 177.143 30.0606 177.143 30.9886V31.8196H167.931V29.9446H174.295C174.295 29.509 174.2 29.1231 174.011 28.7869C173.822 28.4508 173.559 28.188 173.223 27.9986C172.891 27.8045 172.505 27.7074 172.065 27.7074C171.606 27.7074 171.199 27.8139 170.843 28.027C170.493 28.2353 170.218 28.517 170.02 28.8722C169.821 29.2225 169.719 29.6132 169.714 30.044V31.8267C169.714 32.3665 169.814 32.8329 170.012 33.2259C170.216 33.6188 170.502 33.9219 170.872 34.1349C171.241 34.348 171.679 34.4545 172.186 34.4545C172.522 34.4545 172.83 34.4072 173.109 34.3125C173.388 34.2178 173.627 34.0758 173.826 33.8864C174.025 33.697 174.177 33.465 174.281 33.1903L177.079 33.375C176.937 34.0473 176.646 34.6345 176.206 35.1364C175.77 35.6335 175.207 36.0218 174.515 36.3011C173.829 36.5758 173.036 36.7131 172.136 36.7131Z" fill="#040328"/>
</svg>
