<svg width="232" height="60" viewBox="0 0 232 60" fill="none" xmlns="http://www.w3.org/2000/svg">
<path d="M0.462891 0.291992H172.463C205.048 0.291992 231.463 26.7072 231.463 59.292H59.4629C26.8781 59.292 0.462891 32.8768 0.462891 0.291992Z" fill="#D0F7A2"/>
<path d="M104.579 20.8374V38.292H101.392L93.7981 27.3062H93.6703V38.292H89.9799V20.8374H93.2186L100.753 31.8147H100.906V20.8374H104.579ZM113.526 38.5477C112.18 38.5477 111.02 38.2749 110.049 37.7295C109.083 37.1784 108.339 36.3999 107.816 35.3943C107.293 34.3829 107.032 33.1869 107.032 31.8062C107.032 30.4596 107.293 29.2778 107.816 28.2607C108.339 27.2437 109.074 26.4511 110.023 25.8829C110.978 25.3147 112.097 25.0306 113.381 25.0306C114.245 25.0306 115.049 25.1698 115.793 25.4482C116.543 25.721 117.197 26.1329 117.753 26.684C118.316 27.2352 118.753 27.9284 119.066 28.7636C119.378 29.5931 119.535 30.5647 119.535 31.6784V32.6755H108.481V30.4255H116.117C116.117 29.9028 116.003 29.4397 115.776 29.0363C115.549 28.6329 115.233 28.3176 114.83 28.0903C114.432 27.8573 113.969 27.7409 113.441 27.7409C112.89 27.7409 112.401 27.8687 111.975 28.1244C111.555 28.3744 111.225 28.7124 110.986 29.1386C110.748 29.559 110.626 30.0278 110.62 30.5448V32.684C110.62 33.3318 110.739 33.8914 110.978 34.363C111.222 34.8346 111.566 35.1982 112.009 35.4539C112.452 35.7096 112.978 35.8374 113.586 35.8374C113.989 35.8374 114.358 35.7806 114.694 35.667C115.029 35.5534 115.316 35.3829 115.555 35.1556C115.793 34.9284 115.975 34.6499 116.1 34.3204L119.458 34.542C119.287 35.3488 118.938 36.0534 118.41 36.6556C117.887 37.2522 117.211 37.7181 116.381 38.0534C115.557 38.3829 114.606 38.5477 113.526 38.5477ZM124.704 25.2011L127.107 29.7778L129.57 25.2011H133.295L129.502 31.7465L133.397 38.292H129.689L127.107 33.7664L124.567 38.292H120.817L124.704 31.7465L120.954 25.2011H124.704ZM142.414 25.2011V27.9284H134.53V25.2011H142.414ZM136.32 22.0647H139.951V34.2693C139.951 34.6045 140.002 34.8659 140.104 35.0534C140.206 35.2352 140.349 35.363 140.53 35.4369C140.718 35.5107 140.934 35.5477 141.178 35.5477C141.349 35.5477 141.519 35.5335 141.689 35.5051C141.86 35.471 141.991 35.4454 142.081 35.4284L142.653 38.1301C142.471 38.1869 142.215 38.2522 141.885 38.3261C141.556 38.4056 141.155 38.4539 140.684 38.471C139.809 38.5051 139.042 38.3886 138.383 38.1215C137.729 37.8545 137.221 37.4397 136.857 36.8772C136.493 36.3147 136.314 35.6045 136.32 34.7465V22.0647Z" fill="#040328"/>
</svg>
