<svg width="232" height="60" viewBox="0 0 232 60" fill="none" xmlns="http://www.w3.org/2000/svg">
<path d="M0.5 0.914185H172.5C205.085 0.914185 231.5 27.3294 231.5 59.9142V59.9142H59.5C26.9152 59.9142 0.5 33.499 0.5 0.914185V0.914185Z" fill="#D0F7A2"/>
<path d="M93.7642 37.4142V22.8687H103.565V25.4042H96.8395V28.8702H103.061V31.4057H96.8395V34.8787H103.594V37.4142H93.7642ZM109.064 37.6202C108.368 37.6202 107.748 37.4994 107.203 37.2579C106.659 37.0117 106.228 36.6495 105.911 36.1713C105.598 35.6883 105.442 35.087 105.442 34.3673C105.442 33.7612 105.553 33.2523 105.776 32.8403C105.998 32.4284 106.301 32.0969 106.685 31.846C107.069 31.5951 107.504 31.4057 107.992 31.2778C108.484 31.15 109 31.06 109.54 31.0079C110.175 30.9416 110.686 30.8801 111.074 30.8233C111.462 30.7617 111.744 30.6718 111.919 30.5534C112.095 30.435 112.182 30.2598 112.182 30.0278V29.9852C112.182 29.5354 112.04 29.1874 111.756 28.9412C111.477 28.695 111.079 28.5719 110.563 28.5719C110.018 28.5719 109.585 28.6926 109.263 28.9341C108.941 29.1708 108.728 29.4691 108.624 29.829L105.826 29.6017C105.968 28.9388 106.247 28.3659 106.664 27.8829C107.08 27.3952 107.618 27.0212 108.276 26.7608C108.939 26.4956 109.706 26.363 110.577 26.363C111.183 26.363 111.763 26.4341 112.317 26.5761C112.876 26.7182 113.371 26.9383 113.801 27.2366C114.237 27.5349 114.58 27.9184 114.831 28.3872C115.082 28.8512 115.208 29.4076 115.208 30.0562V37.4142H112.338V35.9014H112.253C112.078 36.2423 111.844 36.543 111.55 36.8034C111.257 37.0591 110.904 37.2603 110.492 37.4071C110.08 37.5491 109.604 37.6202 109.064 37.6202ZM109.931 35.5321C110.376 35.5321 110.769 35.4445 111.11 35.2693C111.451 35.0894 111.718 34.8479 111.912 34.5449C112.106 34.2418 112.203 33.8986 112.203 33.515V32.3574C112.109 32.4189 111.979 32.4757 111.813 32.5278C111.652 32.5752 111.47 32.6202 111.266 32.6628C111.062 32.7006 110.859 32.7362 110.655 32.7693C110.452 32.7977 110.267 32.8237 110.101 32.8474C109.746 32.8995 109.436 32.9824 109.171 33.096C108.906 33.2096 108.7 33.3635 108.553 33.5577C108.406 33.747 108.333 33.9838 108.333 34.2679C108.333 34.6798 108.482 34.9947 108.78 35.2125C109.083 35.4255 109.467 35.5321 109.931 35.5321ZM126.632 29.6159L123.862 29.7863C123.815 29.5496 123.713 29.3365 123.556 29.1471C123.4 28.953 123.194 28.7991 122.939 28.6855C122.688 28.5671 122.387 28.5079 122.037 28.5079C121.568 28.5079 121.172 28.6074 120.85 28.8062C120.529 29.0004 120.368 29.2608 120.368 29.5875C120.368 29.8479 120.472 30.0681 120.68 30.248C120.888 30.4279 121.246 30.5723 121.752 30.6812L123.727 31.079C124.788 31.2968 125.578 31.6471 126.099 32.1301C126.62 32.613 126.88 33.2475 126.88 34.0335C126.88 34.7485 126.67 35.3758 126.248 35.9156C125.832 36.4554 125.259 36.8768 124.529 37.1798C123.805 37.4781 122.969 37.6273 122.022 37.6273C120.578 37.6273 119.428 37.3266 118.571 36.7253C117.718 36.1192 117.219 35.2953 117.072 34.2537L120.048 34.0974C120.138 34.5378 120.356 34.8739 120.701 35.1059C121.047 35.3332 121.49 35.4469 122.029 35.4469C122.56 35.4469 122.986 35.3451 123.308 35.1415C123.635 34.9331 123.8 34.6656 123.805 34.3389C123.8 34.0643 123.684 33.8394 123.457 33.6642C123.23 33.4843 122.879 33.3469 122.406 33.2523L120.517 32.8758C119.451 32.6628 118.658 32.2934 118.137 31.7679C117.621 31.2423 117.363 30.5723 117.363 29.7579C117.363 29.0572 117.553 28.4535 117.931 27.9469C118.315 27.4402 118.852 27.0496 119.544 26.775C120.24 26.5004 121.054 26.363 121.987 26.363C123.365 26.363 124.449 26.6542 125.24 27.2366C126.035 27.819 126.499 28.6121 126.632 29.6159ZM130.653 41.5051C130.27 41.5051 129.91 41.4743 129.574 41.4128C129.242 41.3559 128.968 41.2826 128.75 41.1926L129.432 38.9341C129.787 39.043 130.107 39.1022 130.391 39.1116C130.679 39.1211 130.928 39.0548 131.136 38.9128C131.349 38.7707 131.522 38.5292 131.655 38.1883L131.832 37.7267L127.919 26.5051H131.101L133.359 34.5165H133.473L135.753 26.5051H138.956L134.716 38.5932C134.512 39.1803 134.235 39.6916 133.885 40.1273C133.539 40.5676 133.101 40.9061 132.571 41.1429C132.041 41.3844 131.402 41.5051 130.653 41.5051Z" fill="#040328"/>
</svg>
